<mxfile host="Electron" agent="Mozilla/5.0 (Windows NT 10.0; Win64; x64) AppleWebKit/537.36 (KHTML, like Gecko) draw.io/24.7.17 Chrome/128.0.6613.36 Electron/32.0.1 Safari/537.36" version="24.7.17">
  <diagram name="PÃ¡gina-1" id="aNfUZD8gHYoDdnzCPIoF">
    <mxGraphModel dx="983" dy="828" grid="1" gridSize="10" guides="1" tooltips="1" connect="1" arrows="1" fold="1" page="1" pageScale="1" pageWidth="827" pageHeight="1169" math="0" shadow="0">
      <root>
        <mxCell id="0" />
        <mxCell id="1" parent="0" />
        <mxCell id="HjZVV909dTV1K1tZ-w_0-2" value="PROVINCIA" style="whiteSpace=wrap;html=1;align=center;" vertex="1" parent="1">
          <mxGeometry x="180" y="120" width="100" height="40" as="geometry" />
        </mxCell>
        <mxCell id="HjZVV909dTV1K1tZ-w_0-5" value="poblacion" style="ellipse;whiteSpace=wrap;html=1;align=center;" vertex="1" parent="1">
          <mxGeometry x="40" y="150" width="100" height="40" as="geometry" />
        </mxCell>
        <mxCell id="HjZVV909dTV1K1tZ-w_0-6" value="nombre" style="ellipse;whiteSpace=wrap;html=1;align=center;" vertex="1" parent="1">
          <mxGeometry x="40" y="90" width="100" height="40" as="geometry" />
        </mxCell>
        <mxCell id="HjZVV909dTV1K1tZ-w_0-8" value="superficie" style="ellipse;whiteSpace=wrap;html=1;align=center;" vertex="1" parent="1">
          <mxGeometry x="40" y="210" width="100" height="40" as="geometry" />
        </mxCell>
        <mxCell id="HjZVV909dTV1K1tZ-w_0-9" value="" style="endArrow=none;html=1;rounded=0;exitX=1;exitY=1;exitDx=0;exitDy=0;entryX=0;entryY=0.5;entryDx=0;entryDy=0;" edge="1" parent="1" source="HjZVV909dTV1K1tZ-w_0-6" target="HjZVV909dTV1K1tZ-w_0-2">
          <mxGeometry width="50" height="50" relative="1" as="geometry">
            <mxPoint x="300" y="320" as="sourcePoint" />
            <mxPoint x="350" y="270" as="targetPoint" />
          </mxGeometry>
        </mxCell>
        <mxCell id="HjZVV909dTV1K1tZ-w_0-10" value="" style="endArrow=none;html=1;rounded=0;exitX=1;exitY=0;exitDx=0;exitDy=0;entryX=0;entryY=0.5;entryDx=0;entryDy=0;" edge="1" parent="1" source="HjZVV909dTV1K1tZ-w_0-5" target="HjZVV909dTV1K1tZ-w_0-2">
          <mxGeometry width="50" height="50" relative="1" as="geometry">
            <mxPoint x="150" y="90" as="sourcePoint" />
            <mxPoint x="210" y="150" as="targetPoint" />
          </mxGeometry>
        </mxCell>
        <mxCell id="HjZVV909dTV1K1tZ-w_0-11" value="" style="endArrow=none;html=1;rounded=0;exitX=1;exitY=0;exitDx=0;exitDy=0;entryX=0;entryY=0.5;entryDx=0;entryDy=0;" edge="1" parent="1" source="HjZVV909dTV1K1tZ-w_0-8" target="HjZVV909dTV1K1tZ-w_0-2">
          <mxGeometry width="50" height="50" relative="1" as="geometry">
            <mxPoint x="150" y="150" as="sourcePoint" />
            <mxPoint x="210" y="150" as="targetPoint" />
          </mxGeometry>
        </mxCell>
        <mxCell id="HjZVV909dTV1K1tZ-w_0-12" value="LOCALIDAD" style="whiteSpace=wrap;html=1;align=center;" vertex="1" parent="1">
          <mxGeometry x="180" y="400" width="100" height="40" as="geometry" />
        </mxCell>
        <mxCell id="HjZVV909dTV1K1tZ-w_0-13" value="poblacion" style="ellipse;whiteSpace=wrap;html=1;align=center;" vertex="1" parent="1">
          <mxGeometry x="40" y="430" width="100" height="40" as="geometry" />
        </mxCell>
        <mxCell id="HjZVV909dTV1K1tZ-w_0-14" value="&lt;u&gt;nombre&lt;/u&gt;" style="ellipse;whiteSpace=wrap;html=1;align=center;" vertex="1" parent="1">
          <mxGeometry x="40" y="370" width="100" height="40" as="geometry" />
        </mxCell>
        <mxCell id="HjZVV909dTV1K1tZ-w_0-15" value="superficie" style="ellipse;whiteSpace=wrap;html=1;align=center;" vertex="1" parent="1">
          <mxGeometry x="40" y="490" width="100" height="40" as="geometry" />
        </mxCell>
        <mxCell id="HjZVV909dTV1K1tZ-w_0-16" value="" style="endArrow=none;html=1;rounded=0;exitX=1;exitY=1;exitDx=0;exitDy=0;entryX=0;entryY=0.5;entryDx=0;entryDy=0;" edge="1" parent="1" source="HjZVV909dTV1K1tZ-w_0-14" target="HjZVV909dTV1K1tZ-w_0-12">
          <mxGeometry width="50" height="50" relative="1" as="geometry">
            <mxPoint x="300" y="600" as="sourcePoint" />
            <mxPoint x="350" y="550" as="targetPoint" />
          </mxGeometry>
        </mxCell>
        <mxCell id="HjZVV909dTV1K1tZ-w_0-17" value="" style="endArrow=none;html=1;rounded=0;exitX=1;exitY=0;exitDx=0;exitDy=0;entryX=0;entryY=0.5;entryDx=0;entryDy=0;" edge="1" parent="1" source="HjZVV909dTV1K1tZ-w_0-13" target="HjZVV909dTV1K1tZ-w_0-12">
          <mxGeometry width="50" height="50" relative="1" as="geometry">
            <mxPoint x="150" y="370" as="sourcePoint" />
            <mxPoint x="210" y="430" as="targetPoint" />
          </mxGeometry>
        </mxCell>
        <mxCell id="HjZVV909dTV1K1tZ-w_0-18" value="" style="endArrow=none;html=1;rounded=0;exitX=1;exitY=0;exitDx=0;exitDy=0;entryX=0;entryY=0.5;entryDx=0;entryDy=0;" edge="1" parent="1" source="HjZVV909dTV1K1tZ-w_0-15" target="HjZVV909dTV1K1tZ-w_0-12">
          <mxGeometry width="50" height="50" relative="1" as="geometry">
            <mxPoint x="150" y="430" as="sourcePoint" />
            <mxPoint x="210" y="430" as="targetPoint" />
          </mxGeometry>
        </mxCell>
        <mxCell id="HjZVV909dTV1K1tZ-w_0-19" value="COMUNIDAD AUTONOMA" style="whiteSpace=wrap;html=1;align=center;flipH=1;flipV=1;" vertex="1" parent="1">
          <mxGeometry x="560" y="120" width="100" height="40" as="geometry" />
        </mxCell>
        <mxCell id="HjZVV909dTV1K1tZ-w_0-20" value="poblacion" style="ellipse;whiteSpace=wrap;html=1;align=center;flipH=1;flipV=1;" vertex="1" parent="1">
          <mxGeometry x="700" y="120" width="100" height="40" as="geometry" />
        </mxCell>
        <mxCell id="HjZVV909dTV1K1tZ-w_0-21" value="&lt;u&gt;nombre&lt;/u&gt;" style="ellipse;whiteSpace=wrap;html=1;align=center;flipH=1;flipV=1;" vertex="1" parent="1">
          <mxGeometry x="700" y="60" width="100" height="40" as="geometry" />
        </mxCell>
        <mxCell id="HjZVV909dTV1K1tZ-w_0-22" value="superficie" style="ellipse;whiteSpace=wrap;html=1;align=center;flipH=1;flipV=1;" vertex="1" parent="1">
          <mxGeometry x="700" y="180" width="100" height="40" as="geometry" />
        </mxCell>
        <mxCell id="HjZVV909dTV1K1tZ-w_0-23" value="" style="endArrow=none;html=1;rounded=0;exitX=0;exitY=1;exitDx=0;exitDy=0;entryX=1;entryY=0.5;entryDx=0;entryDy=0;" edge="1" parent="1" source="HjZVV909dTV1K1tZ-w_0-21" target="HjZVV909dTV1K1tZ-w_0-19">
          <mxGeometry width="50" height="50" relative="1" as="geometry">
            <mxPoint x="455.35533905932743" y="-85.85786437626916" as="sourcePoint" />
            <mxPoint x="405.35533905932743" y="-35.85786437626916" as="targetPoint" />
          </mxGeometry>
        </mxCell>
        <mxCell id="HjZVV909dTV1K1tZ-w_0-24" value="" style="endArrow=none;html=1;rounded=0;entryX=1;entryY=0.5;entryDx=0;entryDy=0;exitX=0;exitY=0.5;exitDx=0;exitDy=0;" edge="1" parent="1" source="HjZVV909dTV1K1tZ-w_0-20" target="HjZVV909dTV1K1tZ-w_0-19">
          <mxGeometry width="50" height="50" relative="1" as="geometry">
            <mxPoint x="700" y="130" as="sourcePoint" />
            <mxPoint x="560" y="131" as="targetPoint" />
          </mxGeometry>
        </mxCell>
        <mxCell id="HjZVV909dTV1K1tZ-w_0-25" value="" style="endArrow=none;html=1;rounded=0;exitX=0;exitY=0;exitDx=0;exitDy=0;entryX=1;entryY=0.5;entryDx=0;entryDy=0;" edge="1" parent="1" source="HjZVV909dTV1K1tZ-w_0-22" target="HjZVV909dTV1K1tZ-w_0-19">
          <mxGeometry width="50" height="50" relative="1" as="geometry">
            <mxPoint x="605.3553390593274" y="175.85786437626894" as="sourcePoint" />
            <mxPoint x="545.3553390593274" y="175.85786437626894" as="targetPoint" />
          </mxGeometry>
        </mxCell>
        <mxCell id="HjZVV909dTV1K1tZ-w_0-26" value="Pertenecer" style="shape=rhombus;perimeter=rhombusPerimeter;whiteSpace=wrap;html=1;align=center;" vertex="1" parent="1">
          <mxGeometry x="360" y="110" width="120" height="60" as="geometry" />
        </mxCell>
        <mxCell id="HjZVV909dTV1K1tZ-w_0-27" value="Pertenecer" style="shape=rhombus;perimeter=rhombusPerimeter;whiteSpace=wrap;html=1;align=center;" vertex="1" parent="1">
          <mxGeometry x="170" y="250" width="120" height="60" as="geometry" />
        </mxCell>
        <mxCell id="HjZVV909dTV1K1tZ-w_0-28" value="1 : M" style="endArrow=none;html=1;rounded=0;exitX=0.5;exitY=0;exitDx=0;exitDy=0;entryX=0.5;entryY=1;entryDx=0;entryDy=0;" edge="1" parent="1" source="HjZVV909dTV1K1tZ-w_0-12" target="HjZVV909dTV1K1tZ-w_0-27">
          <mxGeometry width="50" height="50" relative="1" as="geometry">
            <mxPoint x="400" y="450" as="sourcePoint" />
            <mxPoint x="450" y="400" as="targetPoint" />
          </mxGeometry>
        </mxCell>
        <mxCell id="HjZVV909dTV1K1tZ-w_0-29" value="1 : 1" style="endArrow=none;html=1;rounded=0;exitX=0.5;exitY=1;exitDx=0;exitDy=0;entryX=0.5;entryY=0;entryDx=0;entryDy=0;" edge="1" parent="1" source="HjZVV909dTV1K1tZ-w_0-2" target="HjZVV909dTV1K1tZ-w_0-27">
          <mxGeometry width="50" height="50" relative="1" as="geometry">
            <mxPoint x="240" y="370" as="sourcePoint" />
            <mxPoint x="240" y="300" as="targetPoint" />
          </mxGeometry>
        </mxCell>
        <mxCell id="HjZVV909dTV1K1tZ-w_0-30" value="1 : M" style="endArrow=none;html=1;rounded=0;exitX=0;exitY=0.5;exitDx=0;exitDy=0;entryX=1;entryY=0.5;entryDx=0;entryDy=0;" edge="1" parent="1" source="HjZVV909dTV1K1tZ-w_0-26" target="HjZVV909dTV1K1tZ-w_0-2">
          <mxGeometry y="-10" width="50" height="50" relative="1" as="geometry">
            <mxPoint x="240" y="170" as="sourcePoint" />
            <mxPoint x="240" y="240" as="targetPoint" />
            <mxPoint as="offset" />
          </mxGeometry>
        </mxCell>
        <mxCell id="HjZVV909dTV1K1tZ-w_0-31" value="1 : 1" style="endArrow=none;html=1;rounded=0;exitX=1;exitY=0.5;exitDx=0;exitDy=0;entryX=0;entryY=0.5;entryDx=0;entryDy=0;" edge="1" parent="1" source="HjZVV909dTV1K1tZ-w_0-26" target="HjZVV909dTV1K1tZ-w_0-19">
          <mxGeometry y="10" width="50" height="50" relative="1" as="geometry">
            <mxPoint x="370" y="150" as="sourcePoint" />
            <mxPoint x="290" y="150" as="targetPoint" />
            <mxPoint as="offset" />
          </mxGeometry>
        </mxCell>
        <mxCell id="HjZVV909dTV1K1tZ-w_0-34" value="capital" style="ellipse;whiteSpace=wrap;html=1;align=center;" vertex="1" parent="1">
          <mxGeometry x="40" y="310" width="100" height="40" as="geometry" />
        </mxCell>
        <mxCell id="HjZVV909dTV1K1tZ-w_0-35" value="" style="endArrow=none;html=1;rounded=0;exitX=1;exitY=1;exitDx=0;exitDy=0;entryX=0;entryY=0.5;entryDx=0;entryDy=0;" edge="1" parent="1" source="HjZVV909dTV1K1tZ-w_0-34" target="HjZVV909dTV1K1tZ-w_0-12">
          <mxGeometry width="50" height="50" relative="1" as="geometry">
            <mxPoint x="135" y="414" as="sourcePoint" />
            <mxPoint x="190" y="430" as="targetPoint" />
          </mxGeometry>
        </mxCell>
        <mxCell id="HjZVV909dTV1K1tZ-w_0-36" value="&lt;u&gt;codProvincia&lt;/u&gt;" style="ellipse;whiteSpace=wrap;html=1;align=center;" vertex="1" parent="1">
          <mxGeometry x="40" y="30" width="100" height="40" as="geometry" />
        </mxCell>
        <mxCell id="HjZVV909dTV1K1tZ-w_0-37" value="" style="endArrow=none;html=1;rounded=0;exitX=1;exitY=1;exitDx=0;exitDy=0;entryX=0;entryY=0.5;entryDx=0;entryDy=0;" edge="1" parent="1" source="HjZVV909dTV1K1tZ-w_0-36" target="HjZVV909dTV1K1tZ-w_0-2">
          <mxGeometry width="50" height="50" relative="1" as="geometry">
            <mxPoint x="380" y="360" as="sourcePoint" />
            <mxPoint x="430" y="310" as="targetPoint" />
          </mxGeometry>
        </mxCell>
      </root>
    </mxGraphModel>
  </diagram>
</mxfile>
